<?xml version="1.0" standalone="no"?>
<!DOCTYPE svg PUBLIC "-//W3C//DTD SVG 20010904//EN"
 "http://www.w3.org/TR/2001/REC-SVG-20010904/DTD/svg10.dtd">
<svg version="1.0" xmlns="http://www.w3.org/2000/svg"
 width="1080.000000pt" height="1080.000000pt" viewBox="0 0 1080.000000 1080.000000"
 preserveAspectRatio="xMidYMid meet">

<g transform="translate(0.000000,1080.000000) scale(0.100000,-0.100000)"
fill="#000000" stroke="none">
<path d="M1870 8785 l0 -255 1610 -2 1610 -3 -1775 -2665 -1774 -2665 2199 -5
2200 -5 24 -25 c87 -91 347 -385 383 -434 202 -274 214 -669 29 -955 -179
-277 -487 -427 -803 -391 -183 20 -336 90 -468 213 l-71 65 -176 -156 c-97
-87 -177 -162 -177 -168 -1 -15 107 -116 193 -180 140 -105 291 -176 475 -222
97 -24 123 -26 306 -27 248 0 353 20 540 103 342 152 621 462 734 816 99 310
75 681 -64 971 -57 119 -104 189 -208 314 l-87 104 0 314 c0 173 4 313 8 311
10 -4 399 -431 458 -503 118 -144 243 -370 298 -540 121 -375 115 -833 -15
-1187 -85 -231 -200 -408 -393 -605 l-110 -113 95 0 95 0 101 103 c129 131
147 152 225 267 121 179 203 380 250 612 20 101 23 141 23 368 -1 219 -4 272
-23 375 -38 207 -80 340 -159 497 -86 175 -89 178 -584 764 -414 491 -419 497
-469 599 -54 112 -64 168 -57 321 5 145 25 224 84 336 64 122 209 235 366 284
35 11 57 23 57 32 0 21 -309 11 -395 -13 -118 -32 -204 -82 -291 -169 -125
-125 -174 -248 -174 -436 0 -234 70 -385 290 -625 l109 -120 0 -325 0 -325
-42 46 c-351 380 -518 565 -555 614 -148 200 -228 423 -239 667 -15 329 79
585 297 805 188 190 430 302 695 321 l100 7 3 238 2 237 -63 0 c-96 0 -287
-28 -385 -56 -423 -123 -783 -418 -976 -802 -170 -339 -199 -799 -74 -1192 65
-203 188 -426 320 -578 15 -18 28 -37 28 -42 0 -7 -538 -10 -1486 -10 -1232 0
-1485 2 -1481 13 3 8 800 1207 1771 2666 971 1459 1766 2657 1766 2662 0 5
-821 9 -2085 9 l-2085 0 0 -255z"/>
<path d="M5997 8123 c-906 -1354 -2637 -3952 -2637 -3958 0 -3 44 -5 98 -5
l98 0 1623 2427 c893 1334 1625 2432 1628 2440 4 10 -15 13 -95 13 l-101 0
-614 -917z"/>
<path d="M1900 8005 l0 -65 1095 0 1094 0 41 59 c22 33 40 62 40 65 0 4 -511
6 -1135 6 l-1135 0 0 -65z"/>
<path d="M7006 6361 c-9 -13 -6 -895 2 -908 6 -10 28 -10 92 -3 47 5 88 10 93
10 4 0 7 205 7 455 l0 455 -94 0 c-52 0 -97 -4 -100 -9z"/>
</g>
</svg>
